ffmpeg started on 2016-12-04 at 23:32:27
Report written to "Output/x264/results/ffmpeg/sintelveryfast3000k.log"
Command line:
Tools/ffmpeg/ffmpeg -benchmark -y -i Input/y4m/sintel.y4m -c:v libx264 -preset veryfast -b:v 3000k -an Output/x264/encoded/sintelveryfast3000k.mkv
ffmpeg version N-82227-gdb23fde Copyright (c) 2000-2016 the FFmpeg developers
  built with gcc 5.4.0 (Ubuntu 5.4.0-6ubuntu1~16.04.2) 20160609
  configuration: --prefix=/home/jaroslav/ffmpeg_build --pkg-config-flags=--static --extra-cflags=-I/home/jaroslav/ffmpeg_build/include --extra-ldflags=-L/home/jaroslav/ffmpeg_build/lib --bindir=/home/jaroslav/bin --enable-gpl --enable-libass --enable-libfdk-aac --enable-libfreetype --enable-libmp3lame --enable-libopus --enable-libtheora --enable-libvorbis --enable-libvpx --enable-libx264 --enable-libx265 --enable-nvenc --enable-libmfx --enable-libxvid --enable-libgsm --enable-libopencore-amrnb --enable-version3 --enable-nonfree
  libavutil      55. 35.100 / 55. 35.100
  libavcodec     57. 66.101 / 57. 66.101
  libavformat    57. 57.100 / 57. 57.100
  libavdevice    57.  2.100 / 57.  2.100
  libavfilter     6. 66.100 /  6. 66.100
  libswscale      4.  3.100 /  4.  3.100
  libswresample   2.  4.100 /  2.  4.100
  libpostproc    54.  2.100 / 54.  2.100
Input #0, yuv4mpegpipe, from 'Input/y4m/sintel.y4m':
  Duration: 00:00:20.83, start: 0.000000, bitrate: 2057307 kb/s
    Stream #0:0: Video: rawvideo (I420 / 0x30323449), yuv420p(progressive), 4096x1744, SAR 1:1 DAR 256:109, 24 fps, 24 tbr, 24 tbn, 24 tbc
[libx264 @ 0x297a1c0] using SAR=1/1
[libx264 @ 0x297a1c0] using cpu capabilities: MMX2 SSE2Fast SSSE3 SSE4.2 AVX FMA3 AVX2 LZCNT BMI2
[libx264 @ 0x297a1c0] profile High, level 5.1
[libx264 @ 0x297a1c0] 264 - core 148 - H.264/MPEG-4 AVC codec - Copyleft 2003-2016 - http://www.videolan.org/x264.html - options: cabac=1 ref=1 deblock=1:0:0 analyse=0x3:0x113 me=hex subme=2 psy=1 psy_rd=1.00:0.00 mixed_ref=0 me_range=16 chroma_me=1 trellis=0 8x8dct=1 cqm=0 deadzone=21,11 fast_pskip=1 chroma_qp_offset=0 threads=6 lookahead_threads=2 sliced_threads=0 nr=0 decimate=1 interlaced=0 bluray_compat=0 constrained_intra=0 bframes=3 b_pyramid=2 b_adapt=1 b_bias=0 direct=1 weightb=1 open_gop=0 weightp=1 keyint=250 keyint_min=24 scenecut=40 intra_refresh=0 rc_lookahead=10 rc=abr mbtree=1 bitrate=3000 ratetol=1.0 qcomp=0.60 qpmin=0 qpmax=69 qpstep=4 ip_ratio=1.40 aq=1:1.00
Output #0, matroska, to 'Output/x264/encoded/sintelveryfast3000k.mkv':
  Metadata:
    encoder         : Lavf57.57.100
    Stream #0:0: Video: h264 (libx264) (H264 / 0x34363248), yuv420p, 4096x1744 [SAR 1:1 DAR 256:109], q=-1--1, 3000 kb/s, 24 fps, 1k tbn, 24 tbc
    Metadata:
      encoder         : Lavc57.66.101 libx264
    Side data:
      cpb: bitrate max/min/avg: 0/0/3000000 buffer size: 0 vbv_delay: -1
Stream mapping:
  Stream #0:0 -> #0:0 (rawvideo (native) -> h264 (libx264))
Press [q] to stop, [?] for help
frame=   15 fps=0.0 q=0.0 size=       0kB time=00:00:00.00 bitrate=N/A speed=   0x    frame=   23 fps= 19 q=35.0 size=       1kB time=00:00:00.00 bitrate=5864.0kbits/s speed=0.00084x    frame=   35 fps= 20 q=50.0 size=       1kB time=00:00:00.50 bitrate=  11.7kbits/s speed=0.292x    frame=   47 fps= 21 q=50.0 size=       1kB time=00:00:01.00 bitrate=   5.9kbits/s speed=0.449x    frame=   57 fps= 19 q=50.0 size=       1kB time=00:00:01.41 bitrate=   4.1kbits/s speed=0.478x    frame=   71 fps= 20 q=49.0 size=       1kB time=00:00:02.00 bitrate=   2.9kbits/s speed=0.577x    frame=   83 fps= 21 q=49.0 size=       1kB time=00:00:02.50 bitrate=   2.3kbits/s speed=0.624x    frame=   90 fps= 16 q=49.0 size=       1kB time=00:00:02.79 bitrate=   2.1kbits/s speed=0.505x    frame=   91 fps= 11 q=49.0 size=       1kB time=00:00:02.83 bitrate=   2.1kbits/s speed=0.338x    frame=   92 fps=8.1 q=49.0 size=       1kB time=00:00:02.87 bitrate=   2.0kbits/s speed=0.254x    frame=  105 fps=8.8 q=49.0 size=       1kB time=00:00:03.41 bitrate=   1.7kbits/s speed=0.288x    frame=  112 fps=8.9 q=49.0 size=       1kB time=00:00:03.70 bitrate=   1.6kbits/s speed=0.296x    frame=  118 fps=9.1 q=49.0 size=       1kB time=00:00:03.95 bitrate=   1.5kbits/s speed=0.304x    frame=  127 fps=9.3 q=49.0 size=    1744kB time=00:00:04.33 bitrate=3297.3kbits/s speed=0.317x    frame=  142 fps= 10 q=49.0 size=    1744kB time=00:00:04.95 bitrate=2881.7kbits/s speed=0.349x    frame=  154 fps= 10 q=49.0 size=    1744kB time=00:00:05.45 bitrate=2617.8kbits/s speed=0.371x    frame=  160 fps= 11 q=49.0 size=    1744kB time=00:00:05.70 bitrate=2503.2kbits/s speed=0.375x    frame=  167 fps= 11 q=49.0 size=    1744kB time=00:00:06.00 bitrate=2381.4kbits/s speed=0.381x    frame=  181 fps= 11 q=48.0 size=    2552kB time=00:00:06.58 bitrate=3174.9kbits/s speed=0.405x    frame=  193 fps= 11 q=48.0 size=    2552kB time=00:00:07.08 bitrate=2950.8kbits/s speed=0.422x    frame=  204 fps= 12 q=48.0 size=    2869kB time=00:00:07.54 bitrate=3115.9kbits/s speed=0.436x    frame=  217 fps= 12 q=47.0 size=    2869kB time=00:00:08.08 bitrate=2907.4kbits/s speed=0.453x    frame=  225 fps= 12 q=47.0 size=    2869kB time=00:00:08.41 bitrate=2792.0kbits/s speed=0.455x    frame=  242 fps= 13 q=47.0 size=    2869kB time=00:00:09.12 bitrate=2575.4kbits/s speed=0.479x    frame=  256 fps= 13 q=46.0 size=    2869kB time=00:00:09.70 bitrate=2420.8kbits/s speed=0.496x    frame=  269 fps= 13 q=46.0 size=    2869kB time=00:00:10.25 bitrate=2292.8kbits/s speed=0.51x    frame=  282 fps= 14 q=45.0 size=    2869kB time=00:00:10.79 bitrate=2177.6kbits/s speed=0.524x    frame=  288 fps= 14 q=45.0 size=    3704kB time=00:00:11.04 bitrate=2747.5kbits/s speed=0.521x    frame=  304 fps= 14 q=45.0 size=    3704kB time=00:00:11.70 bitrate=2591.2kbits/s speed=0.54x    frame=  308 fps= 14 q=45.0 size=    3704kB time=00:00:11.87 bitrate=2554.8kbits/s speed=0.535x    frame=  314 fps= 14 q=44.0 size=    3704kB time=00:00:12.12 bitrate=2502.1kbits/s speed=0.526x    frame=  322 fps= 14 q=44.0 size=    3704kB time=00:00:12.45 bitrate=2435.2kbits/s speed=0.527x    frame=  340 fps= 14 q=43.0 size=    3704kB time=00:00:13.20 bitrate=2296.9kbits/s speed=0.547x    frame=  346 fps= 14 q=42.0 size=    3704kB time=00:00:13.45 bitrate=2254.3kbits/s speed=0.546x    frame=  364 fps= 14 q=42.0 size=    3704kB time=00:00:14.20 bitrate=2135.3kbits/s speed=0.565x    frame=  374 fps= 15 q=41.0 size=    3704kB time=00:00:14.62 bitrate=2074.4kbits/s speed=0.568x    frame=  380 fps= 14 q=41.0 size=    3704kB time=00:00:14.87 bitrate=2039.5kbits/s speed=0.559x    frame=  389 fps= 14 q=40.0 size=    4393kB time=00:00:15.25 bitrate=2359.6kbits/s speed=0.558x    frame=  403 fps= 14 q=40.0 size=    4393kB time=00:00:15.83 bitrate=2272.8kbits/s speed=0.569x    frame=  415 fps= 15 q=40.0 size=    4393kB time=00:00:16.33 bitrate=2203.2kbits/s speed=0.577x    frame=  430 fps= 15 q=40.0 size=    4393kB time=00:00:16.95 bitrate=2122.0kbits/s speed=0.587x    frame=  441 fps= 15 q=40.0 size=    5139kB time=00:00:17.41 bitrate=2417.1kbits/s speed=0.588x    frame=  453 fps= 15 q=40.0 size=    5139kB time=00:00:17.91 bitrate=2349.7kbits/s speed=0.595x    frame=  468 fps= 15 q=40.0 size=    5139kB time=00:00:18.54 bitrate=2270.5kbits/s speed=0.605x    frame=  473 fps= 15 q=39.0 size=    5139kB time=00:00:18.75 bitrate=2245.3kbits/s speed=0.595x    frame=  482 fps= 15 q=39.0 size=    5139kB time=00:00:19.12 bitrate=2201.3kbits/s speed=0.596x    frame=  489 fps= 15 q=39.0 size=    5139kB time=00:00:19.41 bitrate=2168.2kbits/s speed=0.595x    frame=  500 fps= 15 q=-1.0 Lsize=    6106kB time=00:00:20.70 bitrate=2415.2kbits/s speed=0.623x    
video:6101kB audio:0kB subtitle:0kB other streams:0kB global headers:0kB muxing overhead: 0.073805%
bench: utime=59.944s
bench: maxrss=932308kB
[libx264 @ 0x297a1c0] frame I:8     Avg QP:35.64  size: 48341
[libx264 @ 0x297a1c0] frame P:284   Avg QP:41.05  size: 15736
[libx264 @ 0x297a1c0] frame B:208   Avg QP:38.17  size:  6688
[libx264 @ 0x297a1c0] consecutive B-frames: 41.2%  8.0%  6.0% 44.8%
[libx264 @ 0x297a1c0] mb I  I16..4: 49.5% 50.1%  0.4%
[libx264 @ 0x297a1c0] mb P  I16..4: 14.8% 13.0%  0.0%  P16..4:  4.8%  0.9%  0.2%  0.0%  0.0%    skip:66.3%
[libx264 @ 0x297a1c0] mb B  I16..4:  1.9%  1.5%  0.0%  B16..8:  5.9%  0.7%  0.0%  direct: 0.6%  skip:89.5%  L0:46.8% L1:51.0% BI: 2.2%
[libx264 @ 0x297a1c0] final ratefactor: 38.12
[libx264 @ 0x297a1c0] 8x8 transform intra:46.8% inter:64.3%
[libx264 @ 0x297a1c0] coded y,uvDC,uvAC intra: 9.3% 13.5% 0.2% inter: 0.3% 1.1% 0.0%
[libx264 @ 0x297a1c0] i16 v,h,dc,p: 55% 28% 10%  6%
[libx264 @ 0x297a1c0] i8 v,h,dc,ddl,ddr,vr,hd,vl,hu: 10% 15% 66%  2%  1%  1%  1%  1%  2%
[libx264 @ 0x297a1c0] i4 v,h,dc,ddl,ddr,vr,hd,vl,hu: 25% 25% 15%  6%  7%  5%  7%  5%  6%
[libx264 @ 0x297a1c0] i8c dc,h,v,p: 89%  6%  5%  0%
[libx264 @ 0x297a1c0] Weighted P-Frames: Y:0.4% UV:0.0%
[libx264 @ 0x297a1c0] kb/s:2398.79
